<?xml version="1.0" encoding="iso-8859-1"?>
<!-- Generator: Adobe Illustrator 18.1.1, SVG Export Plug-In . SVG Version: 6.00 Build 0)  -->
<svg version="1.1" id="Capa_1" xmlns="http://www.w3.org/2000/svg" xmlns:xlink="http://www.w3.org/1999/xlink" x="0px" y="0px"
	 viewBox="0 0 34.39 34.39" style="enable-background:new 0 0 34.39 34.39; fill: white;" xml:space="preserve">
<g>
	<rect x="3.449" y="3.259" width="7.051" height="2.559"/>
	<path d="M12.355,14.431c-2.451,0-4.436,1.988-4.436,4.436c0,2.453,1.984,4.439,4.436,4.439c2.449,0,4.436-1.986,4.436-4.439
		C16.791,16.419,14.805,14.431,12.355,14.431z"/>
	<path d="M31.938,6.605H2.453C1.1,6.605,0,7.7,0,9.057v19.619c0,1.359,1.1,2.455,2.453,2.455h29.484
		c1.355,0,2.453-1.096,2.453-2.455V9.057C34.391,7.7,33.293,6.605,31.938,6.605z M12.455,28.171c-5.139,0-9.303-4.164-9.303-9.303
		c0-5.137,4.164-9.303,9.303-9.303s9.303,4.166,9.303,9.303C21.758,24.007,17.594,28.171,12.455,28.171z M32.141,26.351h-9.666
		v-2.914h9.666V26.351z M30.654,11.814h-2.988c-0.889,0-1.611-0.721-1.611-1.607c0-0.891,0.723-1.611,1.611-1.611h2.988
		c0.887,0,1.607,0.721,1.607,1.611C32.262,11.093,31.541,11.814,30.654,11.814z"/>
	<g>
	</g>
	<g>
	</g>
	<g>
	</g>
	<g>
	</g>
	<g>
	</g>
	<g>
	</g>
	<g>
	</g>
	<g>
	</g>
	<g>
	</g>
	<g>
	</g>
	<g>
	</g>
	<g>
	</g>
	<g>
	</g>
	<g>
	</g>
	<g>
	</g>
</g>
<g>
</g>
<g>
</g>
<g>
</g>
<g>
</g>
<g>
</g>
<g>
</g>
<g>
</g>
<g>
</g>
<g>
</g>
<g>
</g>
<g>
</g>
<g>
</g>
<g>
</g>
<g>
</g>
<g>
</g>
</svg>
