<?xml version="1.0" encoding="iso-8859-1"?>
<!-- Generator: Adobe Illustrator 18.1.1, SVG Export Plug-In . SVG Version: 6.00 Build 0)  -->
<svg version="1.1" id="Capa_1" xmlns="http://www.w3.org/2000/svg" xmlns:xlink="http://www.w3.org/1999/xlink" x="0px" y="0px"
	 viewBox="0 0 258.948 258.948" style="enable-background:new 0 0 258.948 258.948;" xml:space="preserve">
<g>
	<path style="fill:#fff;" d="M150.521,49.9c14.403-1.849,22.539-10.372,26.809-19.771c4.982-10.938-0.103-20.978-5.27-20.728
		c-5.167,0.234-8.523,7.386-12.439,14.278c-2.11,3.704-5.619,6.886-11.487,7.636c-25.939,3.334-31.617,24.449-30.997,35.397h18.71
		C135.732,63.34,136.444,51.722,150.521,49.9z"/>
	<path style="fill:#fff;" d="M0.93,107.473c0,0-0.011,0.136-0.027,0.381C0.343,111.052,0,114.321,0,117.676
		c0,1.741,0.103,3.459,0.256,5.156c-0.936,36.741,0.984,126.67,42.267,126.719c51.872,0.065,57.823-71.045,57.823-71.045
		l29.132-0.022l29.126,0.022c0,0,5.95,71.105,57.823,71.045c41.283-0.054,43.197-89.984,42.267-126.725
		c0.147-1.697,0.256-3.416,0.256-5.156c0-3.35-0.348-6.625-0.903-9.823c-0.016-0.245-0.027-0.381-0.027-0.381l-0.033-0.011
		c-4.824-26.586-28.038-46.765-56.011-46.765c-13.962,0-26.738,5.042-36.643,13.375h-0.016h-11.814h-48.049H93.639h-0.016
		c-9.91-8.333-22.681-13.375-36.643-13.375c-27.973,0-51.187,20.179-56.011,46.765L0.93,107.473z M188.045,119.058
		c0-2.192,1.784-3.976,3.976-3.976h12.836V102.24c0-2.192,1.784-3.981,3.981-3.981h5.967c2.192,0,3.976,1.784,3.976,3.981v12.842
		h12.836c2.192,0,3.976,1.784,3.976,3.976v5.961c0,2.192-1.784,3.976-3.976,3.976h-12.836v12.842c0,2.192-1.784,3.981-3.976,3.981
		h-5.967c-2.192,0-3.981-1.784-3.981-3.981v-12.842h-12.836c-2.192,0-3.976-1.784-3.976-3.976V119.058z M68.951,114.233
		c4.313,0,7.811,3.497,7.811,7.811c0,4.313-3.497,7.811-7.811,7.811c-4.313,0-7.805-3.497-7.805-7.811
		C61.146,117.725,64.638,114.233,68.951,114.233z M50.893,97.394c4.313,0,7.81,3.497,7.81,7.811s-3.497,7.811-7.81,7.811
		s-7.805-3.497-7.805-7.811C43.083,100.886,46.58,97.394,50.893,97.394z M50.893,132.531c4.313,0,7.81,3.497,7.81,7.81
		c0,4.313-3.497,7.805-7.81,7.805s-7.805-3.497-7.805-7.805C43.083,136.028,46.58,132.531,50.893,132.531z M32.836,114.233
		c4.313,0,7.81,3.497,7.81,7.811c0,4.313-3.497,7.811-7.81,7.811s-7.805-3.497-7.805-7.811
		C25.025,117.725,28.522,114.233,32.836,114.233z"/>
</g>
<g>
</g>
<g>
</g>
<g>
</g>
<g>
</g>
<g>
</g>
<g>
</g>
<g>
</g>
<g>
</g>
<g>
</g>
<g>
</g>
<g>
</g>
<g>
</g>
<g>
</g>
<g>
</g>
<g>
</g>
</svg>
